<?xml version="1.0" encoding="UTF-8" standalone="no"?>
<!DOCTYPE svg PUBLIC "-//W3C//DTD SVG 1.0//EN"
 "http://www.w3.org/TR/2001/REC-SVG-20010904/DTD/svg10.dtd" [
 <!ATTLIST svg xmlns:xlink CDATA #FIXED "http://www.w3.org/1999/xlink">
]>
<!-- Generated by Graphviz version 2.16 (Fri Feb  8 12:52:03 UTC 2008)
     For user: (rnhurt) Richard Hurt,,, -->
<!-- Title: controllers_diagram Pages: 1 -->
<svg width="877pt" height="995pt"
 viewBox="0.00 0.00 877.00 995.00" xmlns="http://www.w3.org/2000/svg" xmlns:xlink="http://www.w3.org/1999/xlink">
<g id="graph0" class="graph" transform="scale(1 1) rotate(0) translate(4 991)">
<title>controllers_diagram</title>
<polygon style="fill:white;stroke:white;" points="-4,4 -4,-991 873,-991 873,4 -4,4"/>
<!-- _diagram_info -->
<g id="node1" class="node"><title>_diagram_info</title>
<text text-anchor="start" x="701.5" y="-190.4" style="font-family:Times New Roman;font-size:11.00;">Controllers diagram</text>
<text text-anchor="start" x="701.5" y="-172.4" style="font-family:Times New Roman;font-size:11.00;">Date: Nov 18 2008 &#45; 13:24</text>
<text text-anchor="start" x="701.5" y="-154.4" style="font-family:Times New Roman;font-size:11.00;">Migration version: 11</text>
<text text-anchor="start" x="701.5" y="-136.4" style="font-family:Times New Roman;font-size:11.00;">Generated by RailRoad 0.5.0</text>
</g>
<!-- StudentsController -->
<g id="node2" class="node"><title>StudentsController</title>
<polyline style="fill:none;stroke:black;" points="28,-506 122,-506 "/>
<path style="fill:none;stroke:black;" d="M122,-506C128,-506 134,-512 134,-518"/>
<polyline style="fill:none;stroke:black;" points="134,-518 134,-720 "/>
<path style="fill:none;stroke:black;" d="M134,-720C134,-726 128,-732 122,-732"/>
<polyline style="fill:none;stroke:black;" points="122,-732 28,-732 "/>
<path style="fill:none;stroke:black;" d="M28,-732C22,-732 16,-726 16,-720"/>
<polyline style="fill:none;stroke:black;" points="16,-720 16,-518 "/>
<path style="fill:none;stroke:black;" d="M16,-518C16,-512 22,-506 28,-506"/>
<text text-anchor="middle" x="75" y="-715.4" style="font-family:Times New Roman;font-size:11.00;">StudentsController</text>
<polyline style="fill:none;stroke:black;" points="16,-706 134,-706 "/>
<text text-anchor="start" x="24.125" y="-689.4" style="font-family:Times New Roman;font-size:11.00;">create</text>
<text text-anchor="start" x="24.125" y="-671.4" style="font-family:Times New Roman;font-size:11.00;">destroy</text>
<text text-anchor="start" x="24.125" y="-653.4" style="font-family:Times New Roman;font-size:11.00;">edit</text>
<text text-anchor="start" x="24.125" y="-635.4" style="font-family:Times New Roman;font-size:11.00;">index</text>
<text text-anchor="start" x="24.125" y="-617.4" style="font-family:Times New Roman;font-size:11.00;">list</text>
<text text-anchor="start" x="24.125" y="-599.4" style="font-family:Times New Roman;font-size:11.00;">new</text>
<text text-anchor="start" x="24.125" y="-581.4" style="font-family:Times New Roman;font-size:11.00;">show</text>
<text text-anchor="start" x="24.125" y="-563.4" style="font-family:Times New Roman;font-size:11.00;">update</text>
<polyline style="fill:none;stroke:black;" points="16,-554 134,-554 "/>
<polyline style="fill:none;stroke:black;" points="16,-530 134,-530 "/>
</g>
<!-- CampusesController -->
<g id="node3" class="node"><title>CampusesController</title>
<polyline style="fill:none;stroke:black;" points="525,-516 629,-516 "/>
<path style="fill:none;stroke:black;" d="M629,-516C635,-516 641,-522 641,-528"/>
<polyline style="fill:none;stroke:black;" points="641,-528 641,-712 "/>
<path style="fill:none;stroke:black;" d="M641,-712C641,-718 635,-724 629,-724"/>
<polyline style="fill:none;stroke:black;" points="629,-724 525,-724 "/>
<path style="fill:none;stroke:black;" d="M525,-724C519,-724 513,-718 513,-712"/>
<polyline style="fill:none;stroke:black;" points="513,-712 513,-528 "/>
<path style="fill:none;stroke:black;" d="M513,-528C513,-522 519,-516 525,-516"/>
<text text-anchor="middle" x="577" y="-707.4" style="font-family:Times New Roman;font-size:11.00;">CampusesController</text>
<polyline style="fill:none;stroke:black;" points="513,-698 641,-698 "/>
<text text-anchor="start" x="521.125" y="-681.4" style="font-family:Times New Roman;font-size:11.00;">create</text>
<text text-anchor="start" x="521.125" y="-663.4" style="font-family:Times New Roman;font-size:11.00;">destroy</text>
<text text-anchor="start" x="521.125" y="-645.4" style="font-family:Times New Roman;font-size:11.00;">edit</text>
<text text-anchor="start" x="521.125" y="-627.4" style="font-family:Times New Roman;font-size:11.00;">index</text>
<text text-anchor="start" x="521.125" y="-609.4" style="font-family:Times New Roman;font-size:11.00;">new</text>
<text text-anchor="start" x="521.125" y="-591.4" style="font-family:Times New Roman;font-size:11.00;">show</text>
<text text-anchor="start" x="521.125" y="-573.4" style="font-family:Times New Roman;font-size:11.00;">update</text>
<polyline style="fill:none;stroke:black;" points="513,-564 641,-564 "/>
<polyline style="fill:none;stroke:black;" points="513,-540 641,-540 "/>
</g>
<!-- EnrollmentsController -->
<g id="node4" class="node"><title>EnrollmentsController</title>
<polyline style="fill:none;stroke:black;" points="269,-54 383,-54 "/>
<path style="fill:none;stroke:black;" d="M383,-54C389,-54 395,-60 395,-66"/>
<polyline style="fill:none;stroke:black;" points="395,-66 395,-250 "/>
<path style="fill:none;stroke:black;" d="M395,-250C395,-256 389,-262 383,-262"/>
<polyline style="fill:none;stroke:black;" points="383,-262 269,-262 "/>
<path style="fill:none;stroke:black;" d="M269,-262C263,-262 257,-256 257,-250"/>
<polyline style="fill:none;stroke:black;" points="257,-250 257,-66 "/>
<path style="fill:none;stroke:black;" d="M257,-66C257,-60 263,-54 269,-54"/>
<text text-anchor="middle" x="326" y="-245.4" style="font-family:Times New Roman;font-size:11.00;">EnrollmentsController</text>
<polyline style="fill:none;stroke:black;" points="257,-236 395,-236 "/>
<text text-anchor="start" x="265.125" y="-219.4" style="font-family:Times New Roman;font-size:11.00;">create</text>
<text text-anchor="start" x="265.125" y="-201.4" style="font-family:Times New Roman;font-size:11.00;">destroy</text>
<text text-anchor="start" x="265.125" y="-183.4" style="font-family:Times New Roman;font-size:11.00;">edit</text>
<text text-anchor="start" x="265.125" y="-165.4" style="font-family:Times New Roman;font-size:11.00;">index</text>
<text text-anchor="start" x="265.125" y="-147.4" style="font-family:Times New Roman;font-size:11.00;">new</text>
<text text-anchor="start" x="265.125" y="-129.4" style="font-family:Times New Roman;font-size:11.00;">show</text>
<text text-anchor="start" x="265.125" y="-111.4" style="font-family:Times New Roman;font-size:11.00;">update</text>
<polyline style="fill:none;stroke:black;" points="257,-102 395,-102 "/>
<polyline style="fill:none;stroke:black;" points="257,-78 395,-78 "/>
</g>
<!-- UsersController -->
<g id="node5" class="node"><title>UsersController</title>
<polyline style="fill:none;stroke:black;" points="287,-725 365,-725 "/>
<path style="fill:none;stroke:black;" d="M365,-725C371,-725 377,-731 377,-737"/>
<polyline style="fill:none;stroke:black;" points="377,-737 377,-921 "/>
<path style="fill:none;stroke:black;" d="M377,-921C377,-927 371,-933 365,-933"/>
<polyline style="fill:none;stroke:black;" points="365,-933 287,-933 "/>
<path style="fill:none;stroke:black;" d="M287,-933C281,-933 275,-927 275,-921"/>
<polyline style="fill:none;stroke:black;" points="275,-921 275,-737 "/>
<path style="fill:none;stroke:black;" d="M275,-737C275,-731 281,-725 287,-725"/>
<text text-anchor="middle" x="326" y="-916.4" style="font-family:Times New Roman;font-size:11.00;">UsersController</text>
<polyline style="fill:none;stroke:black;" points="275,-907 377,-907 "/>
<text text-anchor="start" x="283.125" y="-890.4" style="font-family:Times New Roman;font-size:11.00;">create</text>
<text text-anchor="start" x="283.125" y="-872.4" style="font-family:Times New Roman;font-size:11.00;">destroy</text>
<text text-anchor="start" x="283.125" y="-854.4" style="font-family:Times New Roman;font-size:11.00;">edit</text>
<text text-anchor="start" x="283.125" y="-836.4" style="font-family:Times New Roman;font-size:11.00;">index</text>
<text text-anchor="start" x="283.125" y="-818.4" style="font-family:Times New Roman;font-size:11.00;">new</text>
<text text-anchor="start" x="283.125" y="-800.4" style="font-family:Times New Roman;font-size:11.00;">show</text>
<text text-anchor="start" x="283.125" y="-782.4" style="font-family:Times New Roman;font-size:11.00;">update</text>
<polyline style="fill:none;stroke:black;" points="275,-773 377,-773 "/>
<polyline style="fill:none;stroke:black;" points="275,-749 377,-749 "/>
</g>
<!-- RolesController -->
<g id="node6" class="node"><title>RolesController</title>
<polyline style="fill:none;stroke:black;" points="541,-778 619,-778 "/>
<path style="fill:none;stroke:black;" d="M619,-778C625,-778 631,-784 631,-790"/>
<polyline style="fill:none;stroke:black;" points="631,-790 631,-974 "/>
<path style="fill:none;stroke:black;" d="M631,-974C631,-980 625,-986 619,-986"/>
<polyline style="fill:none;stroke:black;" points="619,-986 541,-986 "/>
<path style="fill:none;stroke:black;" d="M541,-986C535,-986 529,-980 529,-974"/>
<polyline style="fill:none;stroke:black;" points="529,-974 529,-790 "/>
<path style="fill:none;stroke:black;" d="M529,-790C529,-784 535,-778 541,-778"/>
<text text-anchor="middle" x="580" y="-969.4" style="font-family:Times New Roman;font-size:11.00;">RolesController</text>
<polyline style="fill:none;stroke:black;" points="529,-960 631,-960 "/>
<text text-anchor="start" x="537.125" y="-943.4" style="font-family:Times New Roman;font-size:11.00;">create</text>
<text text-anchor="start" x="537.125" y="-925.4" style="font-family:Times New Roman;font-size:11.00;">destroy</text>
<text text-anchor="start" x="537.125" y="-907.4" style="font-family:Times New Roman;font-size:11.00;">edit</text>
<text text-anchor="start" x="537.125" y="-889.4" style="font-family:Times New Roman;font-size:11.00;">index</text>
<text text-anchor="start" x="537.125" y="-871.4" style="font-family:Times New Roman;font-size:11.00;">new</text>
<text text-anchor="start" x="537.125" y="-853.4" style="font-family:Times New Roman;font-size:11.00;">show</text>
<text text-anchor="start" x="537.125" y="-835.4" style="font-family:Times New Roman;font-size:11.00;">update</text>
<polyline style="fill:none;stroke:black;" points="529,-826 631,-826 "/>
<polyline style="fill:none;stroke:black;" points="529,-802 631,-802 "/>
</g>
<!-- AssignmentsController -->
<g id="node7" class="node"><title>AssignmentsController</title>
<polyline style="fill:none;stroke:black;" points="13,-778 131,-778 "/>
<path style="fill:none;stroke:black;" d="M131,-778C137,-778 143,-784 143,-790"/>
<polyline style="fill:none;stroke:black;" points="143,-790 143,-974 "/>
<path style="fill:none;stroke:black;" d="M143,-974C143,-980 137,-986 131,-986"/>
<polyline style="fill:none;stroke:black;" points="131,-986 13,-986 "/>
<path style="fill:none;stroke:black;" d="M13,-986C7,-986 1,-980 1,-974"/>
<polyline style="fill:none;stroke:black;" points="1,-974 1,-790 "/>
<path style="fill:none;stroke:black;" d="M1,-790C1,-784 7,-778 13,-778"/>
<text text-anchor="middle" x="72" y="-969.4" style="font-family:Times New Roman;font-size:11.00;">AssignmentsController</text>
<polyline style="fill:none;stroke:black;" points="1,-960 143,-960 "/>
<text text-anchor="start" x="9.125" y="-943.4" style="font-family:Times New Roman;font-size:11.00;">create</text>
<text text-anchor="start" x="9.125" y="-925.4" style="font-family:Times New Roman;font-size:11.00;">destroy</text>
<text text-anchor="start" x="9.125" y="-907.4" style="font-family:Times New Roman;font-size:11.00;">edit</text>
<text text-anchor="start" x="9.125" y="-889.4" style="font-family:Times New Roman;font-size:11.00;">index</text>
<text text-anchor="start" x="9.125" y="-871.4" style="font-family:Times New Roman;font-size:11.00;">new</text>
<text text-anchor="start" x="9.125" y="-853.4" style="font-family:Times New Roman;font-size:11.00;">show</text>
<text text-anchor="start" x="9.125" y="-835.4" style="font-family:Times New Roman;font-size:11.00;">update</text>
<polyline style="fill:none;stroke:black;" points="1,-826 143,-826 "/>
<polyline style="fill:none;stroke:black;" points="1,-802 143,-802 "/>
</g>
<!-- DashboardController -->
<g id="node8" class="node"><title>DashboardController</title>
<polyline style="fill:none;stroke:black;" points="19,-56 125,-56 "/>
<path style="fill:none;stroke:black;" d="M125,-56C131,-56 137,-62 137,-68"/>
<polyline style="fill:none;stroke:black;" points="137,-68 137,-142 "/>
<path style="fill:none;stroke:black;" d="M137,-142C137,-148 131,-154 125,-154"/>
<polyline style="fill:none;stroke:black;" points="125,-154 19,-154 "/>
<path style="fill:none;stroke:black;" d="M19,-154C13,-154 7,-148 7,-142"/>
<polyline style="fill:none;stroke:black;" points="7,-142 7,-68 "/>
<path style="fill:none;stroke:black;" d="M7,-68C7,-62 13,-56 19,-56"/>
<text text-anchor="middle" x="72" y="-137.4" style="font-family:Times New Roman;font-size:11.00;">DashboardController</text>
<polyline style="fill:none;stroke:black;" points="7,-128 137,-128 "/>
<polyline style="fill:none;stroke:black;" points="7,-104 137,-104 "/>
<polyline style="fill:none;stroke:black;" points="7,-80 137,-80 "/>
</g>
<!-- TeachersController -->
<g id="node9" class="node"><title>TeachersController</title>
<polyline style="fill:none;stroke:black;" points="529,-263 625,-263 "/>
<path style="fill:none;stroke:black;" d="M625,-263C631,-263 637,-269 637,-275"/>
<polyline style="fill:none;stroke:black;" points="637,-275 637,-459 "/>
<path style="fill:none;stroke:black;" d="M637,-459C637,-465 631,-471 625,-471"/>
<polyline style="fill:none;stroke:black;" points="625,-471 529,-471 "/>
<path style="fill:none;stroke:black;" d="M529,-471C523,-471 517,-465 517,-459"/>
<polyline style="fill:none;stroke:black;" points="517,-459 517,-275 "/>
<path style="fill:none;stroke:black;" d="M517,-275C517,-269 523,-263 529,-263"/>
<text text-anchor="middle" x="577" y="-454.4" style="font-family:Times New Roman;font-size:11.00;">TeachersController</text>
<polyline style="fill:none;stroke:black;" points="517,-445 637,-445 "/>
<text text-anchor="start" x="525.125" y="-428.4" style="font-family:Times New Roman;font-size:11.00;">create</text>
<text text-anchor="start" x="525.125" y="-410.4" style="font-family:Times New Roman;font-size:11.00;">destroy</text>
<text text-anchor="start" x="525.125" y="-392.4" style="font-family:Times New Roman;font-size:11.00;">edit</text>
<text text-anchor="start" x="525.125" y="-374.4" style="font-family:Times New Roman;font-size:11.00;">index</text>
<text text-anchor="start" x="525.125" y="-356.4" style="font-family:Times New Roman;font-size:11.00;">new</text>
<text text-anchor="start" x="525.125" y="-338.4" style="font-family:Times New Roman;font-size:11.00;">show</text>
<text text-anchor="start" x="525.125" y="-320.4" style="font-family:Times New Roman;font-size:11.00;">update</text>
<polyline style="fill:none;stroke:black;" points="517,-311 637,-311 "/>
<polyline style="fill:none;stroke:black;" points="517,-287 637,-287 "/>
</g>
<!-- GradationsController -->
<g id="node10" class="node"><title>GradationsController</title>
<polyline style="fill:none;stroke:black;" points="23,-262 130,-262 "/>
<path style="fill:none;stroke:black;" d="M130,-262C136,-262 142,-268 142,-274"/>
<polyline style="fill:none;stroke:black;" points="142,-274 142,-458 "/>
<path style="fill:none;stroke:black;" d="M142,-458C142,-464 136,-470 130,-470"/>
<polyline style="fill:none;stroke:black;" points="130,-470 23,-470 "/>
<path style="fill:none;stroke:black;" d="M23,-470C17,-470 11,-464 11,-458"/>
<polyline style="fill:none;stroke:black;" points="11,-458 11,-274 "/>
<path style="fill:none;stroke:black;" d="M11,-274C11,-268 17,-262 23,-262"/>
<text text-anchor="middle" x="76" y="-453.4" style="font-family:Times New Roman;font-size:11.00;">GradationsController</text>
<polyline style="fill:none;stroke:black;" points="11,-444 142,-444 "/>
<text text-anchor="start" x="18.625" y="-427.4" style="font-family:Times New Roman;font-size:11.00;">create</text>
<text text-anchor="start" x="18.625" y="-409.4" style="font-family:Times New Roman;font-size:11.00;">destroy</text>
<text text-anchor="start" x="18.625" y="-391.4" style="font-family:Times New Roman;font-size:11.00;">edit</text>
<text text-anchor="start" x="18.625" y="-373.4" style="font-family:Times New Roman;font-size:11.00;">index</text>
<text text-anchor="start" x="18.625" y="-355.4" style="font-family:Times New Roman;font-size:11.00;">new</text>
<text text-anchor="start" x="18.625" y="-337.4" style="font-family:Times New Roman;font-size:11.00;">show</text>
<text text-anchor="start" x="18.625" y="-319.4" style="font-family:Times New Roman;font-size:11.00;">update</text>
<polyline style="fill:none;stroke:black;" points="11,-310 142,-310 "/>
<polyline style="fill:none;stroke:black;" points="11,-286 142,-286 "/>
</g>
<!-- CoursesController -->
<g id="node11" class="node"><title>CoursesController</title>
<polyline style="fill:none;stroke:black;" points="535,-1 626,-1 "/>
<path style="fill:none;stroke:black;" d="M626,-1C632,-1 638,-7 638,-13"/>
<polyline style="fill:none;stroke:black;" points="638,-13 638,-197 "/>
<path style="fill:none;stroke:black;" d="M638,-197C638,-203 632,-209 626,-209"/>
<polyline style="fill:none;stroke:black;" points="626,-209 535,-209 "/>
<path style="fill:none;stroke:black;" d="M535,-209C529,-209 523,-203 523,-197"/>
<polyline style="fill:none;stroke:black;" points="523,-197 523,-13 "/>
<path style="fill:none;stroke:black;" d="M523,-13C523,-7 529,-1 535,-1"/>
<text text-anchor="middle" x="580" y="-192.4" style="font-family:Times New Roman;font-size:11.00;">CoursesController</text>
<polyline style="fill:none;stroke:black;" points="523,-183 638,-183 "/>
<text text-anchor="start" x="530.625" y="-166.4" style="font-family:Times New Roman;font-size:11.00;">create</text>
<text text-anchor="start" x="530.625" y="-148.4" style="font-family:Times New Roman;font-size:11.00;">destroy</text>
<text text-anchor="start" x="530.625" y="-130.4" style="font-family:Times New Roman;font-size:11.00;">edit</text>
<text text-anchor="start" x="530.625" y="-112.4" style="font-family:Times New Roman;font-size:11.00;">index</text>
<text text-anchor="start" x="530.625" y="-94.4" style="font-family:Times New Roman;font-size:11.00;">new</text>
<text text-anchor="start" x="530.625" y="-76.4" style="font-family:Times New Roman;font-size:11.00;">show</text>
<text text-anchor="start" x="530.625" y="-58.4" style="font-family:Times New Roman;font-size:11.00;">update</text>
<polyline style="fill:none;stroke:black;" points="523,-49 638,-49 "/>
<polyline style="fill:none;stroke:black;" points="523,-25 638,-25 "/>
</g>
<!-- ApplicationController -->
<g id="node12" class="node"><title>ApplicationController</title>
<polyline style="fill:none;stroke:black;" points="271,-444 382,-444 "/>
<path style="fill:none;stroke:black;" d="M382,-444C388,-444 394,-450 394,-456"/>
<polyline style="fill:none;stroke:black;" points="394,-456 394,-530 "/>
<path style="fill:none;stroke:black;" d="M394,-530C394,-536 388,-542 382,-542"/>
<polyline style="fill:none;stroke:black;" points="382,-542 271,-542 "/>
<path style="fill:none;stroke:black;" d="M271,-542C265,-542 259,-536 259,-530"/>
<polyline style="fill:none;stroke:black;" points="259,-530 259,-456 "/>
<path style="fill:none;stroke:black;" d="M259,-456C259,-450 265,-444 271,-444"/>
<text text-anchor="middle" x="326" y="-525.4" style="font-family:Times New Roman;font-size:11.00;">ApplicationController</text>
<polyline style="fill:none;stroke:black;" points="259,-516 394,-516 "/>
<polyline style="fill:none;stroke:black;" points="259,-492 394,-492 "/>
<polyline style="fill:none;stroke:black;" points="259,-468 394,-468 "/>
</g>
<!-- ApplicationController&#45;&gt;StudentsController -->
<g id="edge2" class="edge"><title>ApplicationController&#45;&gt;StudentsController</title>
<path style="fill:none;stroke:black;" d="M250,-532C213,-550 169,-571 134,-589"/>
<polygon style="fill:none;stroke:black;" points="251.958,-534.916 259,-527 248.559,-528.797 251.958,-534.916"/>
</g>
<!-- ApplicationController&#45;&gt;CampusesController -->
<g id="edge4" class="edge"><title>ApplicationController&#45;&gt;CampusesController</title>
<path style="fill:none;stroke:black;" d="M403,-533C438,-550 480,-570 513,-587"/>
<polygon style="fill:none;stroke:black;" points="404.441,-529.797 394,-528 401.042,-535.916 404.441,-529.797"/>
</g>
<!-- ApplicationController&#45;&gt;EnrollmentsController -->
<g id="edge6" class="edge"><title>ApplicationController&#45;&gt;EnrollmentsController</title>
<path style="fill:none;stroke:black;" d="M326,-434C326,-387 326,-319 326,-262"/>
<polygon style="fill:none;stroke:black;" points="322.5,-434 326,-444 329.5,-434 322.5,-434"/>
</g>
<!-- ApplicationController&#45;&gt;UsersController -->
<g id="edge8" class="edge"><title>ApplicationController&#45;&gt;UsersController</title>
<path style="fill:none;stroke:black;" d="M326,-552C326,-600 326,-668 326,-725"/>
<polygon style="fill:none;stroke:black;" points="329.5,-552 326,-542 322.5,-552 329.5,-552"/>
</g>
<!-- ApplicationController&#45;&gt;RolesController -->
<g id="edge10" class="edge"><title>ApplicationController&#45;&gt;RolesController</title>
<path style="fill:none;stroke:black;" d="M364,-551C408,-618 480,-728 529,-804"/>
<polygon style="fill:none;stroke:black;" points="366.459,-548.379 358,-542 360.635,-552.262 366.459,-548.379"/>
</g>
<!-- ApplicationController&#45;&gt;AssignmentsController -->
<g id="edge12" class="edge"><title>ApplicationController&#45;&gt;AssignmentsController</title>
<path style="fill:none;stroke:black;" d="M288,-551C249,-610 188,-705 140,-778"/>
<polygon style="fill:none;stroke:black;" points="291.365,-552.262 294,-542 285.541,-548.379 291.365,-552.262"/>
</g>
<!-- ApplicationController&#45;&gt;DashboardController -->
<g id="edge14" class="edge"><title>ApplicationController&#45;&gt;DashboardController</title>
<path style="fill:none;stroke:black;" d="M288,-435C238,-359 151,-226 104,-154"/>
<polygon style="fill:none;stroke:black;" points="285.541,-437.621 294,-444 291.365,-433.738 285.541,-437.621"/>
</g>
<!-- ApplicationController&#45;&gt;TeachersController -->
<g id="edge16" class="edge"><title>ApplicationController&#45;&gt;TeachersController</title>
<path style="fill:none;stroke:black;" d="M403,-454C440,-435 483,-415 517,-397"/>
<polygon style="fill:none;stroke:black;" points="401.042,-451.084 394,-459 404.441,-457.203 401.042,-451.084"/>
</g>
<!-- ApplicationController&#45;&gt;GradationsController -->
<g id="edge18" class="edge"><title>ApplicationController&#45;&gt;GradationsController</title>
<path style="fill:none;stroke:black;" d="M250,-454C216,-436 175,-417 142,-400"/>
<polygon style="fill:none;stroke:black;" points="248.559,-457.203 259,-459 251.958,-451.084 248.559,-457.203"/>
</g>
<!-- ApplicationController&#45;&gt;CoursesController -->
<g id="edge20" class="edge"><title>ApplicationController&#45;&gt;CoursesController</title>
<path style="fill:none;stroke:black;" d="M364,-436C406,-372 474,-267 523,-192"/>
<polygon style="fill:none;stroke:black;" points="361.2,-433.9 358,-444 366.8,-438.1 361.2,-433.9"/>
</g>
</g>
</svg>
